<svg height="512" viewBox="0 0 64 64" width="512" xmlns="http://www.w3.org/2000/svg"><g id="resistor-semiconductor-electronics"><path d="m10 23v4h-4v22h-3v-26z" fill="#e0e0e2"/><path d="m61 23v26h-3v-22h-4v-4z" fill="#e0e0e2"/><path d="m54 17v16a2.006 2.006 0 0 1 -2 2h-6l-1-3h-26l-1 3h-6a2.006 2.006 0 0 1 -2-2v-16a2.006 2.006 0 0 1 2-2h6l1 3h26l1-3h6a2.006 2.006 0 0 1 2 2z" fill="#ffc477"/><path d="m13 15h3v20h-3z" fill="#ff5023"/><path d="m21 18h4v14h-4z" fill="#e0e0e2"/><path d="m30 18h4v14h-4z" fill="#91dc5a"/><path d="m39 18h4v14h-4z" fill="#ffda44"/><path d="m48 15h3v20h-3z" fill="#ff9811"/><path d="m4 24h5v1h-5z" fill="#fff"/><rect fill="#ffdaaa" height="2" rx="1" width="7" x="11" y="17"/><path d="m13 17h3v2h-3z" fill="#ff734f"/></g></svg>